<mxfile host="app.diagrams.net" modified="2020-07-24T21:33:58.381Z" agent="5.0 (Windows NT 10.0; Win64; x64) AppleWebKit/537.36 (KHTML, like Gecko) Chrome/84.0.4147.89 Safari/537.36" etag="nfMax8BkFoKuj4k-olrA" version="13.5.1" type="github">
  <diagram id="5SMAr4eFiwvhmo29WjOX" name="Page-1">
    <mxGraphModel dx="1077" dy="1352" grid="1" gridSize="10" guides="1" tooltips="1" connect="1" arrows="1" fold="1" page="1" pageScale="1" pageWidth="850" pageHeight="1100" math="0" shadow="0">
      <root>
        <mxCell id="0" />
        <mxCell id="1" parent="0" />
        <mxCell id="6mxpjp4uClxmK7pNbLGQ-10" value="Queue" style="edgeStyle=orthogonalEdgeStyle;rounded=0;orthogonalLoop=1;jettySize=auto;html=1;exitX=1;exitY=0.25;exitDx=0;exitDy=0;entryX=0;entryY=0.25;entryDx=0;entryDy=0;" edge="1" parent="1" source="6mxpjp4uClxmK7pNbLGQ-2" target="6mxpjp4uClxmK7pNbLGQ-3">
          <mxGeometry relative="1" as="geometry">
            <Array as="points">
              <mxPoint x="350" y="145" />
              <mxPoint x="350" y="145" />
            </Array>
          </mxGeometry>
        </mxCell>
        <mxCell id="6mxpjp4uClxmK7pNbLGQ-1" value="User Interface" style="rounded=1;whiteSpace=wrap;html=1;" vertex="1" parent="1">
          <mxGeometry x="140" y="70" width="120" height="60" as="geometry" />
        </mxCell>
        <mxCell id="6mxpjp4uClxmK7pNbLGQ-18" style="edgeStyle=orthogonalEdgeStyle;rounded=0;orthogonalLoop=1;jettySize=auto;html=1;exitX=0.75;exitY=1;exitDx=0;exitDy=0;entryX=0;entryY=0.25;entryDx=0;entryDy=0;" edge="1" parent="1" source="6mxpjp4uClxmK7pNbLGQ-2" target="6mxpjp4uClxmK7pNbLGQ-5">
          <mxGeometry relative="1" as="geometry" />
        </mxCell>
        <mxCell id="6mxpjp4uClxmK7pNbLGQ-19" value="Queue" style="edgeLabel;html=1;align=center;verticalAlign=middle;resizable=0;points=[];" vertex="1" connectable="0" parent="6mxpjp4uClxmK7pNbLGQ-18">
          <mxGeometry x="-0.0523" y="39" relative="1" as="geometry">
            <mxPoint as="offset" />
          </mxGeometry>
        </mxCell>
        <mxCell id="6mxpjp4uClxmK7pNbLGQ-2" value="User Interface&lt;br&gt;Process" style="rounded=1;whiteSpace=wrap;html=1;" vertex="1" parent="1">
          <mxGeometry x="140" y="130" width="120" height="60" as="geometry" />
        </mxCell>
        <mxCell id="6mxpjp4uClxmK7pNbLGQ-11" style="edgeStyle=orthogonalEdgeStyle;rounded=0;orthogonalLoop=1;jettySize=auto;html=1;exitX=0;exitY=0.75;exitDx=0;exitDy=0;entryX=1;entryY=0.75;entryDx=0;entryDy=0;" edge="1" parent="1" source="6mxpjp4uClxmK7pNbLGQ-3" target="6mxpjp4uClxmK7pNbLGQ-2">
          <mxGeometry relative="1" as="geometry">
            <Array as="points">
              <mxPoint x="370" y="175" />
              <mxPoint x="370" y="175" />
            </Array>
          </mxGeometry>
        </mxCell>
        <mxCell id="6mxpjp4uClxmK7pNbLGQ-12" value="Context Queue" style="edgeLabel;html=1;align=center;verticalAlign=middle;resizable=0;points=[];" vertex="1" connectable="0" parent="6mxpjp4uClxmK7pNbLGQ-11">
          <mxGeometry x="0.0952" y="1" relative="1" as="geometry">
            <mxPoint x="14" as="offset" />
          </mxGeometry>
        </mxCell>
        <mxCell id="6mxpjp4uClxmK7pNbLGQ-3" value="UI Process" style="rounded=1;whiteSpace=wrap;html=1;" vertex="1" parent="1">
          <mxGeometry x="495" y="130" width="120" height="60" as="geometry" />
        </mxCell>
        <mxCell id="6mxpjp4uClxmK7pNbLGQ-4" value="UI View" style="rounded=1;whiteSpace=wrap;html=1;" vertex="1" parent="1">
          <mxGeometry x="400" y="270" width="120" height="60" as="geometry" />
        </mxCell>
        <mxCell id="6mxpjp4uClxmK7pNbLGQ-20" style="edgeStyle=orthogonalEdgeStyle;rounded=0;orthogonalLoop=1;jettySize=auto;html=1;exitX=0;exitY=0.75;exitDx=0;exitDy=0;entryX=0.25;entryY=1;entryDx=0;entryDy=0;" edge="1" parent="1" source="6mxpjp4uClxmK7pNbLGQ-5" target="6mxpjp4uClxmK7pNbLGQ-2">
          <mxGeometry relative="1" as="geometry" />
        </mxCell>
        <mxCell id="6mxpjp4uClxmK7pNbLGQ-21" value="Context Queue" style="edgeLabel;html=1;align=center;verticalAlign=middle;resizable=0;points=[];" vertex="1" connectable="0" parent="6mxpjp4uClxmK7pNbLGQ-20">
          <mxGeometry x="-0.3783" y="2" relative="1" as="geometry">
            <mxPoint as="offset" />
          </mxGeometry>
        </mxCell>
        <mxCell id="6mxpjp4uClxmK7pNbLGQ-24" value="Queue" style="edgeStyle=orthogonalEdgeStyle;rounded=0;orthogonalLoop=1;jettySize=auto;html=1;exitX=1;exitY=0.75;exitDx=0;exitDy=0;entryX=1;entryY=0.25;entryDx=0;entryDy=0;curved=1;endArrow=none;endFill=0;startArrow=classicThin;startFill=1;" edge="1" parent="1" source="6mxpjp4uClxmK7pNbLGQ-5" target="6mxpjp4uClxmK7pNbLGQ-4">
          <mxGeometry relative="1" as="geometry">
            <Array as="points">
              <mxPoint x="700" y="375" />
              <mxPoint x="700" y="285" />
            </Array>
          </mxGeometry>
        </mxCell>
        <mxCell id="6mxpjp4uClxmK7pNbLGQ-5" value="UI View Process" style="rounded=1;whiteSpace=wrap;html=1;" vertex="1" parent="1">
          <mxGeometry x="400" y="330" width="120" height="60" as="geometry" />
        </mxCell>
        <mxCell id="6mxpjp4uClxmK7pNbLGQ-13" value="" style="curved=1;endArrow=classic;html=1;exitX=0;exitY=0.5;exitDx=0;exitDy=0;entryX=0;entryY=0.5;entryDx=0;entryDy=0;" edge="1" parent="1" source="6mxpjp4uClxmK7pNbLGQ-2" target="6mxpjp4uClxmK7pNbLGQ-1">
          <mxGeometry width="50" height="50" relative="1" as="geometry">
            <mxPoint x="520" y="350" as="sourcePoint" />
            <mxPoint x="100" y="110" as="targetPoint" />
            <Array as="points">
              <mxPoint x="40" y="130" />
            </Array>
          </mxGeometry>
        </mxCell>
        <mxCell id="6mxpjp4uClxmK7pNbLGQ-14" value="UI Message&lt;br&gt;User Event" style="edgeLabel;html=1;align=center;verticalAlign=middle;resizable=0;points=[];" vertex="1" connectable="0" parent="6mxpjp4uClxmK7pNbLGQ-13">
          <mxGeometry x="-0.3706" y="-16" relative="1" as="geometry">
            <mxPoint as="offset" />
          </mxGeometry>
        </mxCell>
        <mxCell id="6mxpjp4uClxmK7pNbLGQ-16" value="" style="curved=1;endArrow=classic;html=1;entryX=0;entryY=0.75;entryDx=0;entryDy=0;exitX=0;exitY=0.25;exitDx=0;exitDy=0;" edge="1" parent="1" source="6mxpjp4uClxmK7pNbLGQ-1" target="6mxpjp4uClxmK7pNbLGQ-2">
          <mxGeometry width="50" height="50" relative="1" as="geometry">
            <mxPoint x="80" y="270" as="sourcePoint" />
            <mxPoint x="130" y="220" as="targetPoint" />
            <Array as="points">
              <mxPoint x="-50" y="130" />
            </Array>
          </mxGeometry>
        </mxCell>
        <mxCell id="6mxpjp4uClxmK7pNbLGQ-17" value="Queue" style="edgeLabel;html=1;align=center;verticalAlign=middle;resizable=0;points=[];" vertex="1" connectable="0" parent="6mxpjp4uClxmK7pNbLGQ-16">
          <mxGeometry x="-0.5082" y="41" relative="1" as="geometry">
            <mxPoint as="offset" />
          </mxGeometry>
        </mxCell>
        <mxCell id="6mxpjp4uClxmK7pNbLGQ-22" value="" style="curved=1;endArrow=classic;html=1;exitX=1;exitY=0.5;exitDx=0;exitDy=0;entryX=1;entryY=0.5;entryDx=0;entryDy=0;" edge="1" parent="1" source="6mxpjp4uClxmK7pNbLGQ-5" target="6mxpjp4uClxmK7pNbLGQ-4">
          <mxGeometry width="50" height="50" relative="1" as="geometry">
            <mxPoint x="440" y="350" as="sourcePoint" />
            <mxPoint x="560" y="270" as="targetPoint" />
            <Array as="points">
              <mxPoint x="660" y="340" />
            </Array>
          </mxGeometry>
        </mxCell>
        <mxCell id="6mxpjp4uClxmK7pNbLGQ-23" value="UI View Message&lt;br&gt;User Event" style="edgeLabel;html=1;align=center;verticalAlign=middle;resizable=0;points=[];" vertex="1" connectable="0" parent="6mxpjp4uClxmK7pNbLGQ-22">
          <mxGeometry x="-0.5102" y="18" relative="1" as="geometry">
            <mxPoint as="offset" />
          </mxGeometry>
        </mxCell>
      </root>
    </mxGraphModel>
  </diagram>
</mxfile>
